<svg width="31" height="31" viewBox="0 0 31 31" fill="none" xmlns="http://www.w3.org/2000/svg">
<mask id="mask0_541_488" style="mask-type:alpha" maskUnits="userSpaceOnUse" x="0" y="0" width="31" height="31">
<rect width="31" height="31" fill="#D9D9D9"/>
</mask>
<g mask="url(#mask0_541_488)">
<path d="M15.4997 21.9584C15.8656 21.9584 16.1724 21.8346 16.42 21.587C16.6676 21.3395 16.7913 21.0327 16.7913 20.6667C16.7913 20.3007 16.6676 19.994 16.42 19.7464C16.1724 19.4988 15.8656 19.375 15.4997 19.375C15.1337 19.375 14.8269 19.4988 14.5794 19.7464C14.3318 19.994 14.208 20.3007 14.208 20.6667C14.208 21.0327 14.3318 21.3395 14.5794 21.587C14.8269 21.8346 15.1337 21.9584 15.4997 21.9584ZM14.208 16.7917H16.7913V9.04171H14.208V16.7917ZM15.4997 28.4167C13.7129 28.4167 12.0337 28.0776 10.4622 27.3995C8.89065 26.7214 7.52363 25.8011 6.36113 24.6386C5.19863 23.4761 4.27832 22.1091 3.6002 20.5375C2.92207 18.966 2.58301 17.2868 2.58301 15.5C2.58301 13.7132 2.92207 12.0341 3.6002 10.4625C4.27832 8.89101 5.19863 7.524 6.36113 6.3615C7.52363 5.199 8.89065 4.27869 10.4622 3.60056C12.0337 2.92244 13.7129 2.58337 15.4997 2.58337C17.2865 2.58337 18.9656 2.92244 20.5372 3.60056C22.1087 4.27869 23.4757 5.199 24.6382 6.3615C25.8007 7.524 26.721 8.89101 27.3992 10.4625C28.0773 12.0341 28.4163 13.7132 28.4163 15.5C28.4163 17.2868 28.0773 18.966 27.3992 20.5375C26.721 22.1091 25.8007 23.4761 24.6382 24.6386C23.4757 25.8011 22.1087 26.7214 20.5372 27.3995C18.9656 28.0776 17.2865 28.4167 15.4997 28.4167Z" fill="#6AAF8E"/>
</g>
</svg>
