<svg width="701" height="524" viewBox="0 0 701 524" fill="none" xmlns="http://www.w3.org/2000/svg">
<path d="M56.386 226.133C60.2762 226.133 63.7773 227.088 66.8895 228.998C70.0016 230.907 72.4418 233.524 74.2101 236.849C76.0491 240.173 76.9686 243.957 76.9686 248.201C76.9686 252.374 76.0491 256.158 74.2101 259.553C72.4418 262.948 70.0016 265.636 66.8895 267.616C63.7773 269.597 60.2762 270.587 56.386 270.587L34.8486 270.587L35.5913 269.314L35.5913 296.05C35.5913 297.252 35.2023 298.278 34.4242 299.127C33.6462 299.976 32.656 300.4 31.4536 300.4C30.1804 300.4 29.1548 299.976 28.3768 299.127C27.6695 298.278 27.3158 297.252 27.3158 296.05L27.3158 230.377C27.3158 229.174 27.7048 228.184 28.4829 227.406C29.3316 226.557 30.3572 226.133 31.5596 226.133L56.386 226.133ZM56.386 262.418C58.7201 262.418 60.7713 261.781 62.5396 260.508C64.3078 259.235 65.7224 257.502 66.7834 255.309C67.8443 253.117 68.3748 250.747 68.3748 248.201C68.3748 245.513 67.8443 243.144 66.7834 241.092C65.7224 239.041 64.3078 237.414 62.5396 236.212C60.7713 234.939 58.7201 234.302 56.386 234.302L34.8486 234.302L35.5913 233.135L35.5913 263.479L34.8486 262.418L56.386 262.418Z" fill="#77C14B"/>
<path d="M98.6792 296.05C98.6792 297.252 98.2548 298.278 97.406 299.127C96.5573 299.976 95.5317 300.4 94.3293 300.4C93.1269 300.4 92.1366 299.976 91.3586 299.127C90.5806 298.278 90.1915 297.252 90.1915 296.05L90.1915 226.133C90.1915 224.931 90.5806 223.94 91.3586 223.162C92.2074 222.314 93.233 221.889 94.4354 221.889C95.7085 221.889 96.7341 222.314 97.5121 223.162C98.2902 223.94 98.6792 224.931 98.6792 226.133L98.6792 296.05Z" fill="#77C14B"/>
<path d="M160.338 245.018C161.541 245.018 162.531 245.442 163.309 246.291C164.158 247.069 164.582 248.059 164.582 249.262L164.582 296.05C164.582 297.252 164.158 298.278 163.309 299.127C162.531 299.976 161.541 300.4 160.338 300.4C159.065 300.4 158.039 299.976 157.261 299.127C156.483 298.278 156.094 297.252 156.094 296.05L156.094 285.971L158.11 285.759C158.11 287.315 157.58 289.012 156.519 290.851C155.458 292.69 154.008 294.423 152.169 296.05C150.33 297.606 148.137 298.915 145.591 299.976C143.115 300.966 140.428 301.461 137.528 301.461C132.718 301.461 128.403 300.223 124.584 297.747C120.764 295.201 117.723 291.771 115.46 287.456C113.267 283.142 112.171 278.226 112.171 272.709C112.171 267.121 113.267 262.205 115.46 257.962C117.723 253.647 120.764 250.287 124.584 247.883C128.403 245.407 132.647 244.169 137.315 244.169C140.357 244.169 143.186 244.664 145.803 245.655C148.42 246.645 150.683 247.989 152.593 249.686C154.574 251.384 156.094 253.258 157.155 255.309C158.287 257.36 158.853 259.412 158.853 261.463L156.094 260.826L156.094 249.262C156.094 248.059 156.483 247.069 157.261 246.291C158.039 245.442 159.065 245.018 160.338 245.018ZM138.482 293.61C142.019 293.61 145.131 292.69 147.819 290.851C150.577 289.012 152.699 286.537 154.185 283.425C155.741 280.242 156.519 276.67 156.519 272.709C156.519 268.819 155.741 265.318 154.185 262.205C152.699 259.023 150.577 256.547 147.819 254.779C145.131 252.94 142.019 252.02 138.482 252.02C135.017 252.02 131.905 252.904 129.146 254.673C126.458 256.441 124.336 258.881 122.78 261.993C121.224 265.105 120.446 268.677 120.446 272.709C120.446 276.67 121.189 280.242 122.674 283.425C124.23 286.537 126.352 289.012 129.04 290.851C131.798 292.69 134.946 293.61 138.482 293.61Z" fill="#77C14B"/>
<path d="M207.578 244.169C212.388 244.169 216.172 245.159 218.93 247.14C221.689 249.12 223.634 251.773 224.765 255.097C225.968 258.421 226.569 262.135 226.569 266.237L226.569 296.05C226.569 297.252 226.145 298.278 225.296 299.127C224.518 299.976 223.528 300.4 222.325 300.4C221.123 300.4 220.097 299.976 219.249 299.127C218.47 298.278 218.081 297.252 218.081 296.05L218.081 266.449C218.081 263.762 217.657 261.357 216.808 259.235C216.03 257.042 214.686 255.309 212.777 254.036C210.938 252.692 208.391 252.02 205.138 252.02C202.167 252.02 199.444 252.692 196.968 254.036C194.493 255.309 192.512 257.042 191.027 259.235C189.542 261.357 188.799 263.762 188.799 266.449L188.799 296.05C188.799 297.252 188.375 298.278 187.526 299.127C186.748 299.976 185.758 300.4 184.555 300.4C183.353 300.4 182.327 299.976 181.478 299.127C180.7 298.278 180.311 297.252 180.311 296.05L180.311 249.792C180.311 248.59 180.7 247.6 181.478 246.822C182.327 245.973 183.353 245.548 184.555 245.548C185.828 245.548 186.854 245.973 187.632 246.822C188.41 247.6 188.799 248.59 188.799 249.792L188.799 257.325L186.677 259.659C187.031 257.82 187.844 255.981 189.117 254.142C190.391 252.232 191.982 250.535 193.892 249.05C195.801 247.564 197.923 246.397 200.257 245.548C202.592 244.629 205.032 244.169 207.578 244.169Z" fill="#77C14B"/>
<path d="M286.258 225.709C287.46 225.709 288.45 226.168 289.228 227.088C290.077 227.937 290.502 228.927 290.502 230.059C290.502 230.483 290.431 230.943 290.289 231.438C290.219 231.862 290.042 232.287 289.759 232.711L265.145 266.98L266.524 261.781L266.524 296.05C266.524 297.252 266.1 298.278 265.251 299.127C264.473 299.976 263.518 300.4 262.386 300.4C261.113 300.4 260.052 299.976 259.203 299.127C258.425 298.278 258.036 297.252 258.036 296.05L258.036 262.63L258.779 265.388L234.908 233.135C234.483 232.569 234.165 232.039 233.953 231.544C233.811 230.978 233.741 230.448 233.741 229.952C233.741 228.75 234.236 227.76 235.226 226.982C236.216 226.133 237.206 225.709 238.197 225.709C239.611 225.709 240.778 226.381 241.698 227.724L263.659 257.856L261.644 257.537L282.757 227.831C283.676 226.416 284.843 225.709 286.258 225.709Z" fill="#77C14B"/>
<path d="M370.567 245.548C371.84 245.548 372.866 245.973 373.644 246.822C374.422 247.6 374.811 248.59 374.811 249.792L374.811 278.756C374.811 285.9 372.795 291.452 368.764 295.413C364.803 299.304 359.25 301.249 352.107 301.249C345.034 301.249 339.481 299.304 335.45 295.413C331.489 291.452 329.508 285.9 329.508 278.756L329.508 249.792C329.508 248.59 329.897 247.6 330.675 246.822C331.524 245.973 332.55 245.548 333.752 245.548C335.025 245.548 336.051 245.973 336.829 246.822C337.607 247.6 337.996 248.59 337.996 249.792L337.996 278.756C337.996 283.566 339.234 287.209 341.709 289.684C344.185 292.16 347.651 293.398 352.107 293.398C356.704 293.398 360.205 292.16 362.61 289.684C365.086 287.209 366.324 283.566 366.324 278.756L366.324 249.792C366.324 248.59 366.713 247.6 367.491 246.822C368.339 245.973 369.365 245.548 370.567 245.548Z" fill="#77C14B"/>
<path d="M394.778 300.4C393.575 300.4 392.55 299.975 391.701 299.127C390.923 298.278 390.534 297.252 390.534 296.05L390.534 249.792C390.534 248.59 390.923 247.6 391.701 246.822C392.55 245.973 393.575 245.548 394.778 245.548C396.051 245.548 397.077 245.973 397.855 246.822C398.633 247.6 399.022 248.59 399.022 249.792L399.022 263.797L397.749 261.569C398.173 259.376 398.916 257.254 399.977 255.203C401.108 253.081 402.523 251.207 404.22 249.58C405.918 247.883 407.863 246.574 410.056 245.655C412.248 244.664 414.653 244.169 417.27 244.169C418.826 244.169 420.241 244.558 421.514 245.336C422.858 246.044 423.53 247.069 423.53 248.413C423.53 249.898 423.141 250.995 422.363 251.702C421.585 252.409 420.701 252.763 419.71 252.763C418.791 252.763 417.907 252.586 417.058 252.232C416.209 251.808 415.148 251.596 413.875 251.596C412.107 251.596 410.339 252.091 408.57 253.081C406.873 254.001 405.281 255.345 403.796 257.113C402.381 258.881 401.214 260.897 400.295 263.16C399.446 265.353 399.022 267.722 399.022 270.269L399.022 296.05C399.022 297.252 398.597 298.278 397.749 299.127C396.97 299.975 395.98 300.4 394.778 300.4Z" fill="#77C14B"/>
<path d="M463.673 226.133C467.563 226.133 471.064 227.088 474.176 228.998C477.288 230.907 479.729 233.524 481.497 236.849C483.336 240.173 484.255 243.957 484.255 248.201C484.255 252.374 483.336 256.158 481.497 259.553C479.729 262.948 477.288 265.636 474.176 267.616C471.064 269.597 467.563 270.587 463.673 270.587L442.135 270.587L442.878 269.314L442.878 296.05C442.878 297.252 442.489 298.278 441.711 299.127C440.933 299.975 439.943 300.4 438.74 300.4C437.467 300.4 436.442 299.975 435.664 299.127C434.956 298.278 434.603 297.252 434.603 296.05L434.603 230.377C434.603 229.174 434.992 228.184 435.77 227.406C436.618 226.557 437.644 226.133 438.846 226.133L463.673 226.133ZM463.673 262.418C466.007 262.418 468.058 261.781 469.826 260.508C471.595 259.235 473.009 257.502 474.07 255.309C475.131 253.117 475.662 250.747 475.662 248.201C475.662 245.513 475.131 243.144 474.07 241.092C473.009 239.041 471.595 237.414 469.826 236.212C468.058 234.939 466.007 234.302 463.673 234.302L442.135 234.302L442.878 233.135L442.878 263.479L442.135 262.418L463.673 262.418Z" fill="#77C14B"/>
<path d="M505.966 296.05C505.966 297.252 505.542 298.278 504.693 299.127C503.844 299.975 502.819 300.4 501.616 300.4C500.414 300.4 499.423 299.975 498.645 299.127C497.867 298.278 497.478 297.252 497.478 296.05L497.478 226.133C497.478 224.931 497.867 223.94 498.645 223.162C499.494 222.314 500.52 221.889 501.722 221.889C502.995 221.889 504.021 222.314 504.799 223.162C505.577 223.94 505.966 224.931 505.966 226.133L505.966 296.05Z" fill="#77C14B"/>
<path d="M567.625 245.018C568.827 245.018 569.818 245.442 570.596 246.291C571.444 247.069 571.869 248.059 571.869 249.262L571.869 296.05C571.869 297.252 571.444 298.278 570.596 299.127C569.818 299.975 568.827 300.4 567.625 300.4C566.352 300.4 565.326 299.975 564.548 299.127C563.77 298.278 563.381 297.252 563.381 296.05L563.381 285.971L565.397 285.759C565.397 287.315 564.866 289.012 563.805 290.851C562.745 292.69 561.295 294.423 559.456 296.05C557.617 297.606 555.424 298.915 552.878 299.975C550.402 300.966 547.714 301.461 544.814 301.461C540.005 301.461 535.69 300.223 531.871 297.747C528.051 295.201 525.01 291.771 522.747 287.456C520.554 283.142 519.458 278.226 519.458 272.709C519.458 267.121 520.554 262.205 522.747 257.962C525.01 253.647 528.051 250.287 531.871 247.883C535.69 245.407 539.934 244.169 544.602 244.169C547.644 244.169 550.473 244.664 553.09 245.655C555.707 246.645 557.97 247.989 559.88 249.686C561.86 251.384 563.381 253.258 564.442 255.309C565.574 257.36 566.14 259.412 566.14 261.463L563.381 260.826L563.381 249.262C563.381 248.059 563.77 247.069 564.548 246.291C565.326 245.442 566.352 245.018 567.625 245.018ZM545.769 293.61C549.306 293.61 552.418 292.69 555.106 290.851C557.864 289.012 559.986 286.537 561.471 283.425C563.027 280.242 563.805 276.67 563.805 272.709C563.805 268.819 563.027 265.318 561.471 262.205C559.986 259.023 557.864 256.547 555.106 254.779C552.418 252.94 549.306 252.02 545.769 252.02C542.303 252.02 539.191 252.904 536.433 254.673C533.745 256.441 531.623 258.881 530.067 261.993C528.511 265.105 527.733 268.677 527.733 272.709C527.733 276.67 528.476 280.242 529.961 283.425C531.517 286.537 533.639 289.012 536.327 290.851C539.085 292.69 542.233 293.61 545.769 293.61Z" fill="#77C14B"/>
<path d="M585.476 245.867L610.409 245.867C611.54 245.867 612.46 246.256 613.167 247.034C613.945 247.812 614.334 248.731 614.334 249.792C614.334 250.924 613.945 251.879 613.167 252.657C612.46 253.364 611.54 253.718 610.409 253.718L585.476 253.718C584.415 253.718 583.496 253.329 582.718 252.551C581.94 251.773 581.551 250.818 581.551 249.686C581.551 248.625 581.94 247.741 582.718 247.034C583.496 246.256 584.415 245.867 585.476 245.867ZM596.616 231.438C597.819 231.438 598.809 231.862 599.587 232.711C600.365 233.489 600.754 234.479 600.754 235.682L600.754 286.926C600.754 288.623 601.002 289.896 601.497 290.745C601.992 291.594 602.628 292.195 603.406 292.549C604.255 292.832 605.069 292.973 605.847 292.973C606.554 292.973 607.155 292.867 607.65 292.655C608.216 292.372 608.853 292.231 609.56 292.231C610.267 292.231 610.904 292.584 611.47 293.291C612.106 293.928 612.425 294.777 612.425 295.838C612.425 297.111 611.682 298.207 610.197 299.127C608.711 299.975 607.049 300.4 605.21 300.4C604.22 300.4 602.982 300.329 601.497 300.188C600.082 300.046 598.668 299.586 597.253 298.808C595.838 298.03 594.636 296.757 593.646 294.989C592.726 293.15 592.266 290.604 592.266 287.35L592.266 235.682C592.266 234.479 592.691 233.489 593.54 232.711C594.388 231.862 595.414 231.438 596.616 231.438Z" fill="#77C14B"/>
<path d="M650.98 301.461C645.321 301.461 640.37 300.258 636.126 297.854C631.882 295.449 628.558 292.16 626.153 287.987C623.819 283.743 622.652 278.862 622.652 273.346C622.652 267.192 623.854 261.958 626.259 257.643C628.735 253.258 631.918 249.934 635.808 247.67C639.769 245.336 643.942 244.169 648.327 244.169C651.581 244.169 654.728 244.77 657.77 245.973C660.811 247.175 663.499 248.944 665.833 251.278C668.167 253.541 670.041 256.299 671.456 259.553C672.871 262.736 673.613 266.308 673.684 270.269C673.684 271.4 673.26 272.355 672.411 273.133C671.562 273.911 670.572 274.3 669.44 274.3L627.532 274.3L625.623 266.98L666.47 266.98L664.772 268.465L664.772 266.131C664.489 263.231 663.499 260.756 661.801 258.704C660.175 256.582 658.159 254.956 655.754 253.824C653.42 252.692 650.944 252.126 648.327 252.126C646.205 252.126 644.083 252.515 641.961 253.293C639.91 254.001 638.036 255.203 636.338 256.901C634.712 258.527 633.368 260.649 632.307 263.266C631.317 265.883 630.821 269.031 630.821 272.709C630.821 276.811 631.635 280.419 633.262 283.531C634.959 286.643 637.293 289.118 640.264 290.957C643.235 292.726 646.7 293.61 650.661 293.61C653.137 293.61 655.294 293.291 657.133 292.655C658.972 292.018 660.564 291.24 661.907 290.321C663.251 289.331 664.383 288.34 665.303 287.35C666.222 286.714 667.106 286.395 667.955 286.395C669.016 286.395 669.865 286.749 670.501 287.456C671.208 288.164 671.562 289.012 671.562 290.003C671.562 291.205 670.996 292.266 669.865 293.185C667.884 295.378 665.196 297.323 661.801 299.021C658.406 300.647 654.799 301.461 650.98 301.461Z" fill="#77C14B"/>
<path d="M278.785 292.224C277.768 289.668 277.428 287.56 277.763 285.902C278.098 284.244 278.561 282.768 279.151 281.473C279.626 280.444 280.017 279.482 280.324 278.587C280.631 277.692 280.579 276.729 280.17 275.698C279.487 273.981 279.024 271.955 278.781 269.621C278.538 267.287 278.726 264.926 279.345 262.536C279.964 260.147 281.111 257.89 282.786 255.766C284.46 253.642 286.874 251.931 290.026 250.634C296.368 248.024 302.222 247.52 307.588 249.121C312.953 250.723 316.788 254.424 319.094 260.224C320.171 262.934 320.69 265.379 320.652 267.56C320.613 269.741 320.271 271.744 319.626 273.569C318.982 275.394 318.13 277.058 317.071 278.562C316.011 280.066 314.981 281.503 313.979 282.874C313.398 283.635 312.883 284.37 312.436 285.078C311.988 285.786 311.603 286.514 311.281 287.26C309.902 290.46 308.581 292.974 307.319 294.802C306.057 296.629 303.689 298.233 300.217 299.614C295.637 301.434 291.266 301.526 287.102 299.889C282.938 298.252 280.165 295.697 278.785 292.224ZM283.364 290.404C284.229 292.579 286.13 294.221 289.067 295.329C292.005 296.437 295.114 296.339 298.396 295.034C300.915 294.033 302.618 292.925 303.505 291.711C304.392 290.496 305.491 288.369 306.801 285.329C307.246 284.224 307.811 283.171 308.495 282.17C309.18 281.169 309.89 280.146 310.624 279.103C312.482 276.552 313.979 274.035 315.112 271.552C316.246 269.068 316.047 265.899 314.515 262.045C312.558 257.122 309.39 254.294 305.01 253.56C300.631 252.826 296.262 253.37 291.904 255.191C289.362 256.245 287.483 257.633 286.267 259.354C285.051 261.075 284.267 262.856 283.916 264.696C283.565 266.537 283.522 268.289 283.785 269.952C284.048 271.615 284.37 272.924 284.749 273.878C285.523 275.824 285.677 277.575 285.213 279.129C284.748 280.684 284.267 282.002 283.769 283.084C283.225 284.272 282.851 285.36 282.646 286.347C282.442 287.334 282.681 288.687 283.364 290.404ZM290.027 277.149C290.907 279.362 292.44 280.94 294.627 281.883C296.813 282.826 299.013 282.857 301.226 281.977C303.44 281.097 305.018 279.564 305.96 277.377C306.903 275.191 306.934 272.991 306.055 270.777C305.175 268.564 303.641 266.986 301.455 266.043C299.268 265.101 297.068 265.07 294.855 265.949C292.641 266.829 291.063 268.363 290.121 270.549C289.178 272.736 289.147 274.936 290.027 277.149Z" fill="#EBD50F"/>
</svg>
