<svg width="40" height="38" viewBox="0 0 40 38" fill="none" xmlns="http://www.w3.org/2000/svg">
<mask id="mask0_29_47" style="mask-type:alpha" maskUnits="userSpaceOnUse" x="0" y="0" width="40" height="38">
<rect width="40.0001" height="37.8667" fill="#D9D9D9"/>
</mask>
<g mask="url(#mask0_29_47)">
<path d="M5.40007 35.6184L10.0668 13.6584L7.06674 14.7486V20.0439H3.7334V12.7239L12.1501 9.37542C12.539 9.21967 12.9487 9.12882 13.3793 9.10287C13.8098 9.07691 14.2195 9.12882 14.6084 9.25861C14.9973 9.3884 15.3654 9.5701 15.7126 9.80372C16.0598 10.0373 16.3446 10.3358 16.5668 10.6992L18.2334 13.1912C18.9557 14.2814 19.9348 15.1769 21.171 15.8777C22.4071 16.5786 23.8168 16.929 25.4001 16.929V20.0439C23.4557 20.0439 21.7196 19.6675 20.1918 18.9148C18.664 18.162 17.3584 17.2016 16.2751 16.0335L15.2334 20.8226L18.7335 23.9375V35.6184H15.4001V25.495L11.9001 23.0031L8.90008 35.6184H5.40007ZM16.2334 8.36308C15.3168 8.36308 14.532 8.05808 13.8793 7.44808C13.2265 6.83808 12.9001 6.10478 12.9001 5.24819C12.9001 4.3916 13.2265 3.6583 13.8793 3.0483C14.532 2.4383 15.3168 2.1333 16.2334 2.1333C17.1501 2.1333 17.9348 2.4383 18.5876 3.0483C19.2404 3.6583 19.5668 4.3916 19.5668 5.24819C19.5668 6.10478 19.2404 6.83808 18.5876 7.44808C17.9348 8.05808 17.1501 8.36308 16.2334 8.36308Z" fill="#6AAF8E"/>
</g>
</svg>
