<svg width="40" height="36" viewBox="0 0 40 36" fill="none" xmlns="http://www.w3.org/2000/svg">
<mask id="mask0_29_41" style="mask-type:alpha" maskUnits="userSpaceOnUse" x="0" y="0" width="40" height="36">
<rect width="40" height="35.7749" fill="#D9D9D9"/>
</mask>
<g mask="url(#mask0_29_41)">
<path d="M11.7847 28.9178V30.7191C11.7847 31.2294 11.6249 31.6572 11.3055 32.0024C10.9861 32.3476 10.5902 32.5203 10.118 32.5203H8.45133C7.97911 32.5203 7.58328 32.3476 7.26383 32.0024C6.94439 31.6572 6.78467 31.2294 6.78467 30.7191V16.3094L10.2847 5.50214C10.4513 4.96177 10.7499 4.52648 11.1805 4.19626C11.6111 3.86604 12.0902 3.70093 12.618 3.70093H30.9513C31.4791 3.70093 31.9583 3.86604 32.3888 4.19626C32.8194 4.52648 33.118 4.96177 33.2847 5.50214L36.7847 16.3094V30.7191C36.7847 31.2294 36.6249 31.6572 36.3055 32.0024C35.9861 32.3476 35.5902 32.5203 35.118 32.5203H33.4513C32.9791 32.5203 32.5833 32.3476 32.2638 32.0024C31.9444 31.6572 31.7847 31.2294 31.7847 30.7191V28.9178H11.7847ZM11.4513 12.707H32.118L30.368 7.30334H13.2013L11.4513 12.707ZM14.2847 23.5142C14.9791 23.5142 15.5694 23.2515 16.0555 22.7262C16.5416 22.2008 16.7847 21.5629 16.7847 20.8124C16.7847 20.0619 16.5416 19.424 16.0555 18.8986C15.5694 18.3733 14.9791 18.1106 14.2847 18.1106C13.5902 18.1106 12.9999 18.3733 12.5138 18.8986C12.0277 19.424 11.7847 20.0619 11.7847 20.8124C11.7847 21.5629 12.0277 22.2008 12.5138 22.7262C12.9999 23.2515 13.5902 23.5142 14.2847 23.5142ZM29.2847 23.5142C29.9791 23.5142 30.5694 23.2515 31.0555 22.7262C31.5416 22.2008 31.7847 21.5629 31.7847 20.8124C31.7847 20.0619 31.5416 19.424 31.0555 18.8986C30.5694 18.3733 29.9791 18.1106 29.2847 18.1106C28.5902 18.1106 27.9999 18.3733 27.5138 18.8986C27.0277 19.424 26.7847 20.0619 26.7847 20.8124C26.7847 21.5629 27.0277 22.2008 27.5138 22.7262C27.9999 23.2515 28.5902 23.5142 29.2847 23.5142ZM10.118 25.3154H33.4513V16.3094H10.118V25.3154Z" fill="#6AAF8E"/>
</g>
</svg>
