<svg width="40" height="41" viewBox="0 0 40 41" fill="none" xmlns="http://www.w3.org/2000/svg">
<mask id="mask0_29_29" style="mask-type:alpha" maskUnits="userSpaceOnUse" x="0" y="0" width="40" height="41">
<rect width="39.1077" height="41" fill="#D9D9D9"/>
</mask>
<g mask="url(#mask0_29_29)">
<path d="M25.2571 9.58614C24.3608 9.58614 23.5936 9.24461 22.9554 8.56153C22.3172 7.87847 21.9981 7.05733 21.9981 6.09812C21.9981 5.13892 22.3172 4.31778 22.9554 3.63471C23.5936 2.95164 24.3608 2.61011 25.2571 2.61011C26.1533 2.61011 26.9205 2.95164 27.5587 3.63471C28.1969 4.31778 28.516 5.13892 28.516 6.09812C28.516 7.05733 28.1969 7.87847 27.5587 8.56153C26.9205 9.24461 26.1533 9.58614 25.2571 9.58614ZM17.5985 18.3062L21.1833 22.3174V33.1302H17.9244V24.4102L12.71 19.527C12.3298 19.1782 12.0718 18.8148 11.936 18.437C11.8002 18.0591 11.7323 17.6086 11.7323 17.0854C11.7323 16.5622 11.807 16.1189 11.9564 15.7556C12.1057 15.3922 12.3569 15.0216 12.71 14.6438L17.2726 9.76054C17.6256 9.38267 17.999 9.1138 18.3928 8.95394C18.7866 8.79407 19.2279 8.71414 19.7168 8.71414C20.2056 8.71414 20.647 8.79407 21.0408 8.95394C21.4345 9.1138 21.808 9.38267 22.161 9.76054L25.2571 13.0742C25.9903 13.859 26.8458 14.4912 27.8235 14.9708C28.8012 15.4504 29.9011 15.6902 31.1232 15.6902V19.1782C29.4122 19.1782 27.8642 18.8512 26.4792 18.1972C25.0941 17.5432 23.872 16.6494 22.8128 15.5158L21.5092 14.1206L17.5985 18.3062ZM8.14744 20.9222C10.4559 20.9222 12.3909 21.7579 13.9525 23.4292C15.5141 25.1005 16.2949 27.1716 16.2949 29.6422C16.2949 32.1129 15.5141 34.1839 13.9525 35.8553C12.3909 37.5266 10.4559 38.3623 8.14744 38.3623C5.839 38.3623 3.90398 37.5266 2.34239 35.8553C0.780796 34.1839 0 32.1129 0 29.6422C0 27.1716 0.780796 25.1005 2.34239 23.4292C3.90398 21.7579 5.839 20.9222 8.14744 20.9222ZM8.14744 35.7463C9.69545 35.7463 11.033 35.1431 12.16 33.9369C13.2871 32.7306 13.8506 31.299 13.8506 29.6422C13.8506 27.9854 13.2871 26.5539 12.16 25.3476C11.033 24.1413 9.69545 23.5382 8.14744 23.5382C6.59942 23.5382 5.26189 24.1413 4.13482 25.3476C3.00776 26.5539 2.44423 27.9854 2.44423 29.6422C2.44423 31.299 3.00776 32.7306 4.13482 33.9369C5.26189 35.1431 6.59942 35.7463 8.14744 35.7463ZM30.9603 20.9222C33.2687 20.9222 35.2037 21.7579 36.7653 23.4292C38.3269 25.1005 39.1077 27.1716 39.1077 29.6422C39.1077 32.1129 38.3269 34.1839 36.7653 35.8553C35.2037 37.5266 33.2687 38.3623 30.9603 38.3623C28.6518 38.3623 26.7168 37.5266 25.1552 35.8553C23.5936 34.1839 22.8128 32.1129 22.8128 29.6422C22.8128 27.1716 23.5936 25.1005 25.1552 23.4292C26.7168 21.7579 28.6518 20.9222 30.9603 20.9222ZM30.9603 35.7463C32.5083 35.7463 33.8458 35.1431 34.9729 33.9369C36.0999 32.7306 36.6635 31.299 36.6635 29.6422C36.6635 27.9854 36.0999 26.5539 34.9729 25.3476C33.8458 24.1413 32.5083 23.5382 30.9603 23.5382C29.4122 23.5382 28.0747 24.1413 26.9476 25.3476C25.8206 26.5539 25.2571 27.9854 25.2571 29.6422C25.2571 31.299 25.8206 32.7306 26.9476 33.9369C28.0747 35.1431 29.4122 35.7463 30.9603 35.7463Z" fill="#6AAF8E"/>
</g>
</svg>
