<svg width="16" height="19" viewBox="0 0 16 19" fill="none" xmlns="http://www.w3.org/2000/svg">
<path d="M1.32433 15.0551C0.979438 14.1876 0.863869 13.4725 0.977623 12.9099C1.09138 12.3474 1.24834 11.8464 1.44852 11.4069C1.60969 11.0579 1.74235 10.7315 1.8465 10.4277C1.95065 10.1239 1.93323 9.79718 1.79424 9.44756C1.5626 8.86487 1.40557 8.17753 1.32315 7.38556C1.24074 6.59359 1.30454 5.79222 1.51457 4.98146C1.72459 4.1707 2.1137 3.40496 2.68191 2.68423C3.25012 1.96351 4.06903 1.38304 5.13863 0.942839C7.29079 0.0572844 9.27711 -0.113805 11.0976 0.429572C12.9181 0.972948 14.2196 2.22875 15.002 4.19696C15.3675 5.11633 15.5436 5.94602 15.5304 6.68604C15.5172 7.42606 15.4013 8.1057 15.1826 8.72496C14.9639 9.34422 14.6749 9.90899 14.3154 10.4193C13.9559 10.9296 13.6062 11.4172 13.2663 11.8823C13.0691 12.1406 12.8945 12.3899 12.7426 12.6302C12.5907 12.8706 12.4602 13.1174 12.351 13.3708C11.8829 14.4565 11.4347 15.3095 11.0065 15.9296C10.5782 16.5497 9.7749 17.094 8.59656 17.5624C7.0427 18.1801 5.55931 18.2113 4.14638 17.6558C2.73345 17.1004 1.79277 16.2335 1.32433 15.0551ZM2.87819 14.4374C3.1716 15.1755 3.81667 15.7325 4.81338 16.1086C5.81009 16.4846 6.86524 16.4513 7.97884 16.0086C8.83346 15.6688 9.41129 15.2929 9.71232 14.8808C10.0134 14.4687 10.3862 13.747 10.8309 12.7155C10.9817 12.3406 11.1733 11.9833 11.4057 11.6435C11.638 11.3037 11.8787 10.9568 12.1279 10.6029C12.7585 9.73737 13.2662 8.88326 13.6509 8.04052C14.0357 7.19779 13.9681 6.12251 13.4482 4.81468C12.7841 3.14429 11.7091 2.1846 10.223 1.93562C8.73702 1.68665 7.25459 1.8711 5.77577 2.48897C4.91335 2.84682 4.27581 3.31769 3.86314 3.90161C3.45048 4.48552 3.18462 5.08981 3.06555 5.71445C2.94649 6.3391 2.93164 6.93356 3.02101 7.49784C3.11038 8.06212 3.21941 8.50612 3.3481 8.82984C3.61063 9.49023 3.66306 10.0842 3.50539 10.6117C3.34772 11.1393 3.1844 11.5866 3.01543 11.9536C2.83085 12.3569 2.70393 12.726 2.63464 13.061C2.56536 13.3959 2.64654 13.8547 2.87819 14.4374ZM5.13893 9.93984C5.43749 10.6909 5.95775 11.2263 6.69971 11.5462C7.44166 11.866 8.18815 11.8766 8.93918 11.5781C9.69021 11.2795 10.2257 10.7593 10.5455 10.0173C10.8653 9.27535 10.876 8.52886 10.5774 7.77783C10.2789 7.02679 9.75861 6.49136 9.01665 6.17151C8.2747 5.85166 7.5282 5.84102 6.77717 6.13958C6.02614 6.43815 5.4907 6.9584 5.17086 7.70036C4.85101 8.44231 4.84037 9.18881 5.13893 9.93984Z" fill="#EBD50F"/>
</svg>
