<svg width="31" height="31" viewBox="0 0 31 31" fill="none" xmlns="http://www.w3.org/2000/svg">
<mask id="mask0_524_505" style="mask-type:alpha" maskUnits="userSpaceOnUse" x="0" y="0" width="31" height="31">
<rect width="31" height="31" fill="#D9D9D9"/>
</mask>
<g mask="url(#mask0_524_505)">
<path d="M15.4997 21.9583C15.8656 21.9583 16.1724 21.8345 16.42 21.5869C16.6676 21.3393 16.7913 21.0326 16.7913 20.6666C16.7913 20.3006 16.6676 19.9938 16.42 19.7463C16.1724 19.4987 15.8656 19.3749 15.4997 19.3749C15.1337 19.3749 14.8269 19.4987 14.5794 19.7463C14.3318 19.9938 14.208 20.3006 14.208 20.6666C14.208 21.0326 14.3318 21.3393 14.5794 21.5869C14.8269 21.8345 15.1337 21.9583 15.4997 21.9583ZM14.208 16.7916H16.7913V9.04159H14.208V16.7916ZM15.4997 28.4166C13.7129 28.4166 12.0337 28.0775 10.4622 27.3994C8.89065 26.7213 7.52363 25.801 6.36113 24.6385C5.19863 23.476 4.27832 22.1089 3.6002 20.5374C2.92207 18.9659 2.58301 17.2867 2.58301 15.4999C2.58301 13.7131 2.92207 12.0339 3.6002 10.4624C4.27832 8.89089 5.19863 7.52388 6.36113 6.36138C7.52363 5.19888 8.89065 4.27856 10.4622 3.60044C12.0337 2.92231 13.7129 2.58325 15.4997 2.58325C17.2865 2.58325 18.9656 2.92231 20.5372 3.60044C22.1087 4.27856 23.4757 5.19888 24.6382 6.36138C25.8007 7.52388 26.721 8.89089 27.3992 10.4624C28.0773 12.0339 28.4163 13.7131 28.4163 15.4999C28.4163 17.2867 28.0773 18.9659 27.3992 20.5374C26.721 22.1089 25.8007 23.476 24.6382 24.6385C23.4757 25.801 22.1087 26.7213 20.5372 27.3994C18.9656 28.0775 17.2865 28.4166 15.4997 28.4166Z" fill="white"/>
</g>
</svg>
